<?xml version="1.0" encoding="UTF-8" standalone="no"?>
<!-- Created with Inkscape (http://www.inkscape.org/) -->

<svg
   xmlns:dc="http://purl.org/dc/elements/1.1/"
   xmlns:cc="http://creativecommons.org/ns#"
   xmlns:rdf="http://www.w3.org/1999/02/22-rdf-syntax-ns#"
   xmlns:svg="http://www.w3.org/2000/svg"
   xmlns="http://www.w3.org/2000/svg"
   xmlns:sodipodi="http://sodipodi.sourceforge.net/DTD/sodipodi-0.dtd"
   xmlns:inkscape="http://www.inkscape.org/namespaces/inkscape"
   width="744.09448819"
   height="1052.3622047"
   id="svg2"
   version="1.1"
   inkscape:version="0.47pre4 r22446"
   sodipodi:docname="LogoSvnmanYii.svg">
  <defs
     id="defs4">
    <inkscape:perspective
       sodipodi:type="inkscape:persp3d"
       inkscape:vp_x="0 : 526.18109 : 1"
       inkscape:vp_y="0 : 1000 : 0"
       inkscape:vp_z="744.09448 : 526.18109 : 1"
       inkscape:persp3d-origin="372.04724 : 350.78739 : 1"
       id="perspective10" />
    <inkscape:perspective
       id="perspective2824"
       inkscape:persp3d-origin="0.5 : 0.33333333 : 1"
       inkscape:vp_z="1 : 0.5 : 1"
       inkscape:vp_y="0 : 1000 : 0"
       inkscape:vp_x="0 : 0.5 : 1"
       sodipodi:type="inkscape:persp3d" />
    <inkscape:perspective
       id="perspective2838"
       inkscape:persp3d-origin="0.5 : 0.33333333 : 1"
       inkscape:vp_z="1 : 0.5 : 1"
       inkscape:vp_y="0 : 1000 : 0"
       inkscape:vp_x="0 : 0.5 : 1"
       sodipodi:type="inkscape:persp3d" />
    <inkscape:perspective
       id="perspective2880"
       inkscape:persp3d-origin="0.5 : 0.33333333 : 1"
       inkscape:vp_z="1 : 0.5 : 1"
       inkscape:vp_y="0 : 1000 : 0"
       inkscape:vp_x="0 : 0.5 : 1"
       sodipodi:type="inkscape:persp3d" />
    <inkscape:perspective
       id="perspective2841"
       inkscape:persp3d-origin="0.5 : 0.33333333 : 1"
       inkscape:vp_z="1 : 0.5 : 1"
       inkscape:vp_y="0 : 1000 : 0"
       inkscape:vp_x="0 : 0.5 : 1"
       sodipodi:type="inkscape:persp3d" />
  </defs>
  <sodipodi:namedview
     id="base"
     pagecolor="#ffffff"
     bordercolor="#666666"
     borderopacity="1.0"
     inkscape:pageopacity="0.0"
     inkscape:pageshadow="2"
     inkscape:zoom="1.4"
     inkscape:cx="147.20676"
     inkscape:cy="848.12999"
     inkscape:document-units="px"
     inkscape:current-layer="layer1"
     showgrid="false"
     inkscape:object-nodes="true"
     inkscape:window-width="1280"
     inkscape:window-height="972"
     inkscape:window-x="0"
     inkscape:window-y="25"
     inkscape:window-maximized="1" />
  <metadata
     id="metadata7">
    <rdf:RDF>
      <cc:Work
         rdf:about="">
        <dc:format>image/svg+xml</dc:format>
        <dc:type
           rdf:resource="http://purl.org/dc/dcmitype/StillImage" />
        <dc:title></dc:title>
      </cc:Work>
    </rdf:RDF>
  </metadata>
  <g
     inkscape:label="Layer 1"
     inkscape:groupmode="layer"
     id="layer1">
    <g
       id="g3728"
       inkscape:export-filename="/home/astarot/Desktop/logoSvnManYii.png"
       inkscape:export-xdpi="90"
       inkscape:export-ydpi="90">
      <rect
         y="94.841881"
         x="211.12386"
         height="52.873421"
         width="134.98917"
         id="rect2866-3"
         style="fill:#535d6c;fill-opacity:1;stroke:none;stroke-width:0.17329219000000001;stroke-miterlimit:4;stroke-opacity:1;stroke-dasharray:none" />
      <rect
         y="93.381561"
         x="210.72122"
         height="51.865891"
         width="133.47656"
         id="rect2866"
         style="fill:#809cc8;fill-opacity:1;stroke:none;stroke-width:0.17066886000000001;stroke-miterlimit:4;stroke-opacity:1;stroke-dasharray:none" />
      <text
         sodipodi:linespacing="125%"
         id="text2862"
         y="125.41192"
         x="302.60455"
         style="font-size:27.8689003px;font-style:normal;font-variant:normal;font-weight:bold;font-stretch:normal;text-align:start;line-height:125%;writing-mode:lr-tb;text-anchor:start;fill:#facd44;fill-opacity:1;stroke:none;font-family:Purisa;-inkscape-font-specification:AlArabiya Bold"
         xml:space="preserve"><tspan
           y="125.41192"
           x="302.60455"
           id="tspan2864"
           sodipodi:role="line">Yii</tspan></text>
      <text
         sodipodi:linespacing="100%"
         id="text2868"
         y="124.53195"
         x="214.233"
         style="font-size:23.15301323px;font-style:italic;font-variant:normal;font-weight:bold;font-stretch:normal;text-align:start;line-height:100%;writing-mode:lr-tb;text-anchor:start;fill:#ffffff;fill-opacity:1;stroke:none;font-family:cmmi10;-inkscape-font-specification:cmmi10 Bold Italic"
         xml:space="preserve"><tspan
           y="124.53195"
           x="214.233"
           id="tspan2870"
           sodipodi:role="line">SvnMan</tspan></text>
      <path
         d="m 216.2151,135.14531 c 0.50374,-0.0227 1.01456,0.10306 1.51757,0.044 0.27154,-0.0319 0.53925,-0.12886 0.80956,-0.18416 0.83891,-0.17113 1.67964,-0.31443 2.51943,-0.47219 5.51385,-1.44672 11.0731,-2.13359 16.63895,-2.59533 10.1449,-0.58255 20.29777,-0.52172 30.4469,-0.51379 13.0507,0.0414 26.10139,0.0733 39.15212,0.0766 10.43868,-0.0173 20.87756,-0.0658 31.31522,-0.33231 0.87162,-0.0301 1.74323,-0.0604 2.61485,-0.0906 0,0 -2.93047,3.689 -2.93047,3.689 l 0,0 c -0.82343,-0.0305 -1.64685,-0.061 -2.47029,-0.0913 -10.25564,-0.27705 -20.51265,-0.32449 -30.76941,-0.35491 -13.09402,-0.0104 -26.18811,-0.0156 -39.28203,0.0889 -10.26433,0.10409 -20.53448,0.14116 -30.78961,0.98273 -5.69594,0.60169 -11.38164,1.45554 -17.01159,3.12351 -1.68699,0.38269 -3.36939,0.88242 -5.07651,0.80342 0,0 3.31531,-4.17352 3.31531,-4.17352 z"
         id="path3666"
         style="fill:#ffffff;fill-opacity:1;stroke:#7d9cc2;stroke-width:0.20372364;stroke-miterlimit:4;stroke-opacity:1;stroke-dasharray:none" />
    </g>
    <rect
       style="fill:#535d6c;fill-opacity:1;stroke:none"
       id="rect2866-3-6"
       width="134.98917"
       height="52.873421"
       x="219.1353"
       y="193.0842"
       inkscape:export-filename="/home/astarot/Documents/SvnManYii/project/arts/LogoDarkSvnManYii.png"
       inkscape:export-xdpi="90"
       inkscape:export-ydpi="90" />
    <rect
       style="fill:#485870;fill-opacity:1;stroke:none"
       id="rect2866-5"
       width="133.47656"
       height="51.865891"
       x="218.73267"
       y="191.62389"
       inkscape:export-filename="/home/astarot/Documents/SvnManYii/project/arts/LogoDarkSvnManYii.png"
       inkscape:export-xdpi="90"
       inkscape:export-ydpi="90" />
    <text
       xml:space="preserve"
       style="font-size:27.8689003px;font-style:normal;font-variant:normal;font-weight:bold;font-stretch:normal;text-align:start;line-height:125%;writing-mode:lr-tb;text-anchor:start;fill:#facd44;fill-opacity:1;stroke:none;font-family:Purisa;-inkscape-font-specification:AlArabiya Bold"
       x="310.616"
       y="223.65424"
       id="text2862-6"
       sodipodi:linespacing="125%"
       inkscape:export-filename="/home/astarot/Documents/SvnManYii/project/arts/LogoDarkSvnManYii.png"
       inkscape:export-xdpi="90"
       inkscape:export-ydpi="90"><tspan
         sodipodi:role="line"
         id="tspan2864-3"
         x="310.616"
         y="223.65424">Yii</tspan></text>
    <text
       xml:space="preserve"
       style="font-size:23.15301323px;font-style:italic;font-variant:normal;font-weight:bold;font-stretch:normal;text-align:start;line-height:100%;writing-mode:lr-tb;text-anchor:start;fill:#ffffff;fill-opacity:1;stroke:none;font-family:cmmi10;-inkscape-font-specification:cmmi10 Bold Italic"
       x="222.24445"
       y="222.77428"
       id="text2868-9"
       sodipodi:linespacing="100%"
       inkscape:export-filename="/home/astarot/Documents/SvnManYii/project/arts/LogoDarkSvnManYii.png"
       inkscape:export-xdpi="90"
       inkscape:export-ydpi="90"><tspan
         sodipodi:role="line"
         id="tspan2870-4"
         x="222.24445"
         y="222.77428">SvnMan</tspan></text>
    <path
       style="fill:#ffffff;fill-opacity:1;stroke:#7d9cc2;stroke-width:0.20372364;stroke-miterlimit:4;stroke-opacity:1;stroke-dasharray:none"
       id="path3666-8"
       d="m 224.22655,233.38763 c 0.50374,-0.0227 1.01456,0.10306 1.51757,0.044 0.27154,-0.0319 0.53925,-0.12886 0.80956,-0.18416 0.83891,-0.17113 1.67964,-0.31443 2.51943,-0.47219 5.51385,-1.44672 11.0731,-2.13359 16.63895,-2.59533 10.1449,-0.58255 20.29777,-0.52172 30.4469,-0.51379 13.0507,0.0414 26.10139,0.0733 39.15212,0.0766 10.43868,-0.0173 20.87756,-0.0658 31.31522,-0.33231 0.87162,-0.0301 1.74323,-0.0604 2.61485,-0.0906 0,0 -2.93047,3.689 -2.93047,3.689 l 0,0 c -0.82343,-0.0305 -1.64685,-0.061 -2.47029,-0.0913 -10.25564,-0.27705 -20.51265,-0.32449 -30.76941,-0.35491 -13.09402,-0.0104 -26.18811,-0.0156 -39.28203,0.0889 -10.26433,0.10409 -20.53448,0.14116 -30.78961,0.98273 -5.69594,0.60169 -11.38164,1.45554 -17.01159,3.12351 -1.68699,0.38269 -3.36939,0.88242 -5.07651,0.80342 0,0 3.31531,-4.17352 3.31531,-4.17352 z"
       inkscape:export-filename="/home/astarot/Documents/SvnManYii/project/arts/LogoDarkSvnManYii.png"
       inkscape:export-xdpi="90"
       inkscape:export-ydpi="90" />
  </g>
</svg>
